# xmcd
#
# Track frame offsets: 
#        150
#        15386
#        32929
#        51819
#        70314
#        90677
#        107010
#        124675
#        147657
#        160448
#        177430
#        208503
#        226334
#        244484
#        265513
#        281281
#        298214
#        316034
#        332452
#        344587
#
# Disc length: 4787 seconds
#
# Revision: 0
# Processed by: cddbd v1.5.2PL0 Copyright (c) Steve Scherf et al.
# Submitted via: ExactAudioCopy v0.99pb4
#
DISCID=2b12b114
DTITLE=Various Artist - prevue promo 1102 A-2
DYEAR=2002
DGENRE=pop
TTITLE0=Blu Cantrell - Breathe
TTITLE1=Vanessa Carlton - Pretty Baby
TTITLE2=Paul Simon - Father And Daughter( Movie "The Wild Thornberrys"
TTITLE2=)
TTITLE3=Kylie Minogue - Come Into My World(Edit)
TTITLE4=Kylie Minogue - Come Into My World(Album Version)
TTITLE5=DJ Otzi - Hey Baby
TTITLE6=Whitney Houston - One Of These Days
TTITLE7=Nelly with Kyjuan, Ali and Murphy Lee - Air Force Ones
TTITLE8=Speech - Spiritual People
TTITLE9=K-Ci and JoJo - It's Me
TTITLE10=Tom Tom Club - Genius Of Love (Kia and Gap Commercial)
TTITLE11=Mae Moore - All I Can't Explain
TTITLE12=Bonnie Raitt - Time Of Our Lives
TTITLE13=Sinead O'Connor - My Lagan Love
TTITLE14=David Bowie - Everyone Says "Hi"
TTITLE15=Clinic - Come Into Our Room
TTITLE16=Evanescence - Bring Me To Life(Movie "Daredevil)
TTITLE17=VonRay - Inside Out( TV Series "Smallville")
TTITLE18=Donnas, The - Take It Off(College Sampler Version)
TTITLE19=SocialBurn - Down
EXTD=
EXTT0=
EXTT1=
EXTT2=
EXTT3=
EXTT4=
EXTT5=
EXTT6=
EXTT7=
EXTT8=
EXTT9=
EXTT10=
EXTT11=
EXTT12=
EXTT13=
EXTT14=
EXTT15=
EXTT16=
EXTT17=
EXTT18=
EXTT19=
PLAYORDER=
